<svg width="64" height="64" viewBox="0 0 64 64" fill="none" xmlns="http://www.w3.org/2000/svg">
<path d="M40.96 54L23.62 33.96V54H11.44V12.72H23.02L40.36 33.06V12.72H52.54V54H40.96Z" fill="#4DD59A"/>
<mask id="path-2-outside-1_0_1" maskUnits="userSpaceOnUse" x="35" y="31" width="25" height="29" fill="black">
<rect fill="white" x="35" y="31" width="25" height="29"/>
<path d="M56.404 49.91C56.404 52.038 55.606 53.704 54.01 54.908C52.414 56.112 50.062 56.714 46.954 56.714C45.778 56.714 44.686 56.63 43.678 56.462C42.67 56.294 41.802 56.042 41.074 55.706C40.374 55.342 39.814 54.894 39.394 54.362C39.002 53.83 38.806 53.2 38.806 52.472C38.806 51.8 38.946 51.24 39.226 50.792C39.506 50.316 39.842 49.924 40.234 49.616C41.046 50.064 41.97 50.47 43.006 50.834C44.07 51.17 45.288 51.338 46.66 51.338C47.528 51.338 48.186 51.212 48.634 50.96C49.11 50.708 49.348 50.372 49.348 49.952C49.348 49.56 49.18 49.252 48.844 49.028C48.508 48.804 47.948 48.622 47.164 48.482L45.904 48.23C43.468 47.754 41.648 47.012 40.444 46.004C39.268 44.968 38.68 43.498 38.68 41.594C38.68 40.558 38.904 39.62 39.352 38.78C39.8 37.94 40.43 37.24 41.242 36.68C42.054 36.12 43.02 35.686 44.14 35.378C45.288 35.07 46.548 34.916 47.92 34.916C48.956 34.916 49.922 35 50.818 35.168C51.742 35.308 52.54 35.532 53.212 35.84C53.884 36.148 54.416 36.554 54.808 37.058C55.2 37.534 55.396 38.108 55.396 38.78C55.396 39.424 55.27 39.984 55.018 40.46C54.794 40.908 54.5 41.286 54.136 41.594C53.912 41.454 53.576 41.314 53.128 41.174C52.68 41.006 52.19 40.866 51.658 40.754C51.126 40.614 50.58 40.502 50.02 40.418C49.488 40.334 48.998 40.292 48.55 40.292C47.626 40.292 46.912 40.404 46.408 40.628C45.904 40.824 45.652 41.146 45.652 41.594C45.652 41.902 45.792 42.154 46.072 42.35C46.352 42.546 46.884 42.728 47.668 42.896L48.97 43.19C51.658 43.806 53.562 44.66 54.682 45.752C55.83 46.816 56.404 48.202 56.404 49.91Z"/>
</mask>
<path d="M56.404 49.91C56.404 52.038 55.606 53.704 54.01 54.908C52.414 56.112 50.062 56.714 46.954 56.714C45.778 56.714 44.686 56.63 43.678 56.462C42.67 56.294 41.802 56.042 41.074 55.706C40.374 55.342 39.814 54.894 39.394 54.362C39.002 53.83 38.806 53.2 38.806 52.472C38.806 51.8 38.946 51.24 39.226 50.792C39.506 50.316 39.842 49.924 40.234 49.616C41.046 50.064 41.97 50.47 43.006 50.834C44.07 51.17 45.288 51.338 46.66 51.338C47.528 51.338 48.186 51.212 48.634 50.96C49.11 50.708 49.348 50.372 49.348 49.952C49.348 49.56 49.18 49.252 48.844 49.028C48.508 48.804 47.948 48.622 47.164 48.482L45.904 48.23C43.468 47.754 41.648 47.012 40.444 46.004C39.268 44.968 38.68 43.498 38.68 41.594C38.68 40.558 38.904 39.62 39.352 38.78C39.8 37.94 40.43 37.24 41.242 36.68C42.054 36.12 43.02 35.686 44.14 35.378C45.288 35.07 46.548 34.916 47.92 34.916C48.956 34.916 49.922 35 50.818 35.168C51.742 35.308 52.54 35.532 53.212 35.84C53.884 36.148 54.416 36.554 54.808 37.058C55.2 37.534 55.396 38.108 55.396 38.78C55.396 39.424 55.27 39.984 55.018 40.46C54.794 40.908 54.5 41.286 54.136 41.594C53.912 41.454 53.576 41.314 53.128 41.174C52.68 41.006 52.19 40.866 51.658 40.754C51.126 40.614 50.58 40.502 50.02 40.418C49.488 40.334 48.998 40.292 48.55 40.292C47.626 40.292 46.912 40.404 46.408 40.628C45.904 40.824 45.652 41.146 45.652 41.594C45.652 41.902 45.792 42.154 46.072 42.35C46.352 42.546 46.884 42.728 47.668 42.896L48.97 43.19C51.658 43.806 53.562 44.66 54.682 45.752C55.83 46.816 56.404 48.202 56.404 49.91Z" fill="#F1F3F5"/>
<path d="M54.01 54.908L55.8167 57.3029L55.8167 57.3029L54.01 54.908ZM43.678 56.462L44.1712 53.5028L44.1712 53.5028L43.678 56.462ZM41.074 55.706L39.6899 58.3677L39.7527 58.4003L39.8168 58.4299L41.074 55.706ZM39.394 54.362L36.9788 56.1416L37.0084 56.1818L37.0394 56.2209L39.394 54.362ZM39.226 50.792L41.77 52.382L41.7914 52.3478L41.8118 52.3131L39.226 50.792ZM40.234 49.616L41.6832 46.9893L39.9432 46.0292L38.3805 47.257L40.234 49.616ZM43.006 50.834L42.0115 53.6644L42.0568 53.6803L42.1026 53.6947L43.006 50.834ZM48.634 50.96L47.2303 48.3086L47.1965 48.3265L47.1632 48.3453L48.634 50.96ZM47.164 48.482L46.5757 51.4237L46.6061 51.4298L46.6366 51.4353L47.164 48.482ZM45.904 48.23L46.4924 45.2882L46.4793 45.2857L45.904 48.23ZM40.444 46.004L38.4609 48.2551L38.4892 48.28L38.5182 48.3043L40.444 46.004ZM39.352 38.78L36.7049 37.3682L36.7049 37.3682L39.352 38.78ZM41.242 36.68L42.9452 39.1496L42.9452 39.1496L41.242 36.68ZM44.14 35.378L43.3626 32.4805L43.3536 32.4829L43.3445 32.4854L44.14 35.378ZM50.818 35.168L50.2651 38.1166L50.3167 38.1263L50.3686 38.1341L50.818 35.168ZM53.212 35.84L51.962 38.5672L51.962 38.5672L53.212 35.84ZM54.808 37.058L52.4399 38.8998L52.4656 38.9328L52.4922 38.9651L54.808 37.058ZM55.018 40.46L52.3666 39.0563L52.3503 39.0872L52.3347 39.1184L55.018 40.46ZM54.136 41.594L52.546 44.138L54.4025 45.2983L56.0738 43.8842L54.136 41.594ZM53.128 41.174L52.0746 43.983L52.1531 44.0124L52.2332 44.0374L53.128 41.174ZM51.658 40.754L50.8945 43.6552L50.9668 43.6742L51.04 43.6896L51.658 40.754ZM50.02 40.418L49.5521 43.3813L49.5635 43.3831L49.575 43.3848L50.02 40.418ZM46.408 40.628L47.4953 43.424L47.5615 43.3983L47.6264 43.3694L46.408 40.628ZM46.072 42.35L44.3516 44.8077L44.3516 44.8077L46.072 42.35ZM47.668 42.896L48.3288 39.9697L48.3127 39.966L48.2966 39.9626L47.668 42.896ZM48.97 43.19L49.6401 40.2658L49.6308 40.2637L48.97 43.19ZM54.682 45.752L52.5877 47.9L52.6149 47.9265L52.6427 47.9523L54.682 45.752ZM53.404 49.91C53.404 51.1672 52.9932 51.9171 52.2033 52.5131L55.8167 57.3029C58.2188 55.4909 59.404 52.9088 59.404 49.91H53.404ZM52.2033 52.5131C51.3455 53.1602 49.7491 53.714 46.954 53.714V59.714C50.3749 59.714 53.4825 59.0638 55.8167 57.3029L52.2033 52.5131ZM46.954 53.714C45.9191 53.714 44.994 53.64 44.1712 53.5028L43.1848 59.4212C44.378 59.62 45.6369 59.714 46.954 59.714V53.714ZM44.1712 53.5028C43.3587 53.3674 42.7603 53.1802 42.3312 52.9821L39.8168 58.4299C40.8437 58.9038 41.9813 59.2206 43.1848 59.4212L44.1712 53.5028ZM42.4581 53.0443C42.0734 52.8444 41.8659 52.6516 41.7486 52.5031L37.0394 56.2209C37.7621 57.1364 38.6746 57.8396 39.6899 58.3677L42.4581 53.0443ZM41.8092 52.5824C41.8086 52.5816 41.8107 52.5844 41.8136 52.5901C41.8164 52.5958 41.8176 52.5995 41.8176 52.5993C41.8174 52.5989 41.8148 52.5903 41.812 52.5711C41.8092 52.5516 41.806 52.5193 41.806 52.472H35.806C35.806 53.7719 36.1682 55.0415 36.9788 56.1416L41.8092 52.5824ZM41.806 52.472C41.806 52.3422 41.8197 52.2825 41.8214 52.2756C41.8221 52.2728 41.8198 52.2829 41.8115 52.3028C41.803 52.3231 41.7897 52.3504 41.77 52.382L36.682 49.202C36.0329 50.2406 35.806 51.3891 35.806 52.472H41.806ZM41.8118 52.3131C41.9225 52.1249 42.0198 52.0281 42.0875 51.975L38.3805 47.257C37.6642 47.8199 37.0895 48.5071 36.6402 49.2709L41.8118 52.3131ZM38.7848 52.2427C39.7661 52.7842 40.8463 53.255 42.0115 53.6644L44.0005 48.0036C43.0937 47.685 42.3259 47.3438 41.6832 46.9893L38.7848 52.2427ZM42.1026 53.6947C43.517 54.1414 45.0491 54.338 46.66 54.338V48.338C45.5269 48.338 44.623 48.1986 43.9094 47.9733L42.1026 53.6947ZM46.66 54.338C47.731 54.338 48.9973 54.1977 50.1048 53.5747L47.1632 48.3453C47.2923 48.2726 47.3422 48.2775 47.2403 48.297C47.1424 48.3158 46.9569 48.338 46.66 48.338V54.338ZM50.0377 53.6114C51.1703 53.0117 52.348 51.8086 52.348 49.952H46.348C46.348 49.5541 46.4737 49.1346 46.7214 48.7849C46.9444 48.4701 47.1763 48.3372 47.2303 48.3086L50.0377 53.6114ZM52.348 49.952C52.348 48.5211 51.6485 47.2921 50.5081 46.5318L47.1799 51.5242C47.0051 51.4076 46.7699 51.1964 46.5883 50.8636C46.4048 50.5271 46.348 50.198 46.348 49.952H52.348ZM50.5081 46.5318C49.635 45.9498 48.5632 45.6844 47.6914 45.5287L46.6366 51.4353C46.937 51.4889 47.132 51.54 47.2447 51.5766C47.2988 51.5942 47.3185 51.6035 47.3118 51.6004C47.3064 51.598 47.2566 51.5753 47.1799 51.5242L50.5081 46.5318ZM47.7523 45.5403L46.4923 45.2883L45.3157 51.1717L46.5757 51.4237L47.7523 45.5403ZM46.4793 45.2857C44.2798 44.8559 43.0227 44.2503 42.3698 43.7037L38.5182 48.3043C40.2733 49.7737 42.6562 50.6521 45.3287 51.1743L46.4793 45.2857ZM42.4271 43.7529C42.0348 43.4073 41.68 42.8379 41.68 41.594H35.68C35.68 44.1581 36.5012 46.5287 38.4609 48.2551L42.4271 43.7529ZM41.68 41.594C41.68 41.0059 41.8028 40.5597 41.9991 40.1918L36.7049 37.3682C36.0052 38.6803 35.68 40.11 35.68 41.594H41.68ZM41.9991 40.1918C42.2132 39.7903 42.5131 39.4477 42.9452 39.1496L39.5388 34.2104C38.3469 35.0323 37.3868 36.0897 36.7049 37.3682L41.9991 40.1918ZM42.9452 39.1496C43.4362 38.811 44.0834 38.5049 44.9355 38.2706L43.3445 32.4854C41.9566 32.8671 40.6718 33.429 39.5388 34.2104L42.9452 39.1496ZM44.9174 38.2755C45.7764 38.0451 46.771 37.916 47.92 37.916V31.916C46.325 31.916 44.7996 32.0949 43.3626 32.4805L44.9174 38.2755ZM47.92 37.916C48.7951 37.916 49.5741 37.9871 50.2651 38.1166L51.3709 32.2194C50.2699 32.0129 49.1169 31.916 47.92 31.916V37.916ZM50.3686 38.1341C51.0852 38.2427 51.6012 38.4018 51.962 38.5672L54.462 33.1128C53.4788 32.6622 52.3988 32.3733 51.2674 32.2019L50.3686 38.1341ZM51.962 38.5672C52.265 38.7061 52.3876 38.8326 52.4399 38.8998L57.1761 35.2162C56.4444 34.2754 55.503 33.5899 54.462 33.1128L51.962 38.5672ZM52.4922 38.9651C52.4795 38.9497 52.4636 38.9275 52.4477 38.8992C52.4318 38.8707 52.4191 38.8419 52.41 38.8149C52.3905 38.758 52.396 38.7384 52.396 38.78H58.396C58.396 37.4791 57.9989 36.2135 57.1238 35.1509L52.4922 38.9651ZM52.396 38.78C52.396 39.03 52.3489 39.0898 52.3666 39.0563L57.6694 41.8637C58.1911 40.8782 58.396 39.818 58.396 38.78H52.396ZM52.3347 39.1184C52.2831 39.2216 52.2365 39.2714 52.1982 39.3038L56.0738 43.8842C56.7635 43.3006 57.3049 42.5944 57.7013 41.8016L52.3347 39.1184ZM55.726 39.05C55.1791 38.7082 54.5575 38.4777 54.0228 38.3106L52.2332 44.0374C52.3931 44.0874 52.4991 44.127 52.5622 44.1532C52.631 44.1819 52.6139 44.1804 52.546 44.138L55.726 39.05ZM54.1814 38.365C53.5741 38.1373 52.9366 37.9574 52.276 37.8183L51.04 43.6896C51.4435 43.7746 51.7859 43.8747 52.0746 43.983L54.1814 38.365ZM52.4215 37.8528C51.7816 37.6844 51.1291 37.5508 50.465 37.4512L49.575 43.3848C50.0309 43.4532 50.4704 43.5436 50.8945 43.6552L52.4215 37.8528ZM50.4879 37.4547C49.831 37.351 49.1823 37.292 48.55 37.292V43.292C48.8137 43.292 49.145 43.317 49.5521 43.3813L50.4879 37.4547ZM48.55 37.292C47.4526 37.292 46.2518 37.4145 45.1896 37.8866L47.6264 43.3694C47.5771 43.3914 47.6138 43.3668 47.7864 43.3398C47.9542 43.3134 48.2031 43.292 48.55 43.292V37.292ZM45.3207 37.832C44.7237 38.0641 44.0274 38.4662 43.4785 39.1676C42.8993 39.9076 42.652 40.7679 42.652 41.594H48.652C48.652 41.9721 48.5307 42.4474 48.2035 42.8654C47.9066 43.2448 47.5883 43.3879 47.4953 43.424L45.3207 37.832ZM42.652 41.594C42.652 42.9998 43.3722 44.1221 44.3516 44.8077L47.7924 39.8923C47.9565 40.0072 48.1912 40.2182 48.3795 40.5571C48.574 40.9072 48.652 41.2742 48.652 41.594H42.652ZM44.3516 44.8077C45.1771 45.3855 46.2524 45.6608 47.0394 45.8294L48.2966 39.9626C47.9761 39.8939 47.7698 39.8353 47.6521 39.795C47.5954 39.7756 47.5801 39.7675 47.5953 39.7746C47.6069 39.78 47.6827 39.8155 47.7924 39.8923L44.3516 44.8077ZM47.0072 45.8223L48.3092 46.1163L49.6308 40.2637L48.3288 39.9697L47.0072 45.8223ZM48.2999 46.1142C50.8071 46.6888 52.0604 47.3859 52.5877 47.9L56.7763 43.604C55.0636 41.9341 52.5089 40.9232 49.6401 40.2658L48.2999 46.1142ZM52.6427 47.9523C53.1185 48.3933 53.404 48.9523 53.404 49.91H59.404C59.404 47.4517 58.5415 45.2387 56.7213 43.5517L52.6427 47.9523Z" fill="black" mask="url(#path-2-outside-1_0_1)"/>
</svg>
