<svg width="64" height="64" viewBox="0 0 64 64" fill="none" xmlns="http://www.w3.org/2000/svg">
<path d="M47.84 48.74C47.28 49.3 46.46 49.72 45.38 50C44.34 50.32 43.08 50.48 41.6 50.48C40.12 50.48 38.72 50.26 37.4 49.82C36.08 49.38 35 48.32 34.16 46.64L28.22 34.52C27.62 33.28 27.08 32.12 26.6 31.04C26.12 29.92 25.6 28.64 25.04 27.2L24.68 27.26C24.84 29.42 24.92 31.62 24.92 33.86C24.96 36.1 24.98 38.3 24.98 40.46V49.76C24.54 49.88 23.86 50 22.94 50.12C22.06 50.24 21.18 50.3 20.3 50.3C19.42 50.3 18.64 50.24 17.96 50.12C17.28 50 16.72 49.76 16.28 49.4C15.84 49.04 15.5 48.56 15.26 47.96C15.02 47.32 14.9 46.5 14.9 45.5V15.5C15.46 14.7 16.32 14.1 17.48 13.7C18.64 13.3 19.88 13.1 21.2 13.1C22.68 13.1 24.08 13.34 25.4 13.82C26.76 14.26 27.84 15.3 28.64 16.94L34.64 29.06C35.24 30.3 35.78 31.48 36.26 32.6C36.74 33.68 37.26 34.94 37.82 36.38L38.12 36.32C37.96 34.16 37.86 32 37.82 29.84C37.78 27.68 37.76 25.52 37.76 23.36V13.64C38.2 13.52 38.86 13.4 39.74 13.28C40.66 13.16 41.56 13.1 42.44 13.1C44.2 13.1 45.54 13.42 46.46 14.06C47.38 14.66 47.84 15.94 47.84 17.9V48.74Z" fill="#4DD59A"/>
<mask id="path-2-outside-1_0_1" maskUnits="userSpaceOnUse" x="32" y="31" width="25" height="29" fill="black">
<rect fill="white" x="32" y="31" width="25" height="29"/>
<path d="M53.404 49.91C53.404 52.038 52.606 53.704 51.01 54.908C49.414 56.112 47.062 56.714 43.954 56.714C42.778 56.714 41.686 56.63 40.678 56.462C39.67 56.294 38.802 56.042 38.074 55.706C37.374 55.342 36.814 54.894 36.394 54.362C36.002 53.83 35.806 53.2 35.806 52.472C35.806 51.8 35.946 51.24 36.226 50.792C36.506 50.316 36.842 49.924 37.234 49.616C38.046 50.064 38.97 50.47 40.006 50.834C41.07 51.17 42.288 51.338 43.66 51.338C44.528 51.338 45.186 51.212 45.634 50.96C46.11 50.708 46.348 50.372 46.348 49.952C46.348 49.56 46.18 49.252 45.844 49.028C45.508 48.804 44.948 48.622 44.164 48.482L42.904 48.23C40.468 47.754 38.648 47.012 37.444 46.004C36.268 44.968 35.68 43.498 35.68 41.594C35.68 40.558 35.904 39.62 36.352 38.78C36.8 37.94 37.43 37.24 38.242 36.68C39.054 36.12 40.02 35.686 41.14 35.378C42.288 35.07 43.548 34.916 44.92 34.916C45.956 34.916 46.922 35 47.818 35.168C48.742 35.308 49.54 35.532 50.212 35.84C50.884 36.148 51.416 36.554 51.808 37.058C52.2 37.534 52.396 38.108 52.396 38.78C52.396 39.424 52.27 39.984 52.018 40.46C51.794 40.908 51.5 41.286 51.136 41.594C50.912 41.454 50.576 41.314 50.128 41.174C49.68 41.006 49.19 40.866 48.658 40.754C48.126 40.614 47.58 40.502 47.02 40.418C46.488 40.334 45.998 40.292 45.55 40.292C44.626 40.292 43.912 40.404 43.408 40.628C42.904 40.824 42.652 41.146 42.652 41.594C42.652 41.902 42.792 42.154 43.072 42.35C43.352 42.546 43.884 42.728 44.668 42.896L45.97 43.19C48.658 43.806 50.562 44.66 51.682 45.752C52.83 46.816 53.404 48.202 53.404 49.91Z"/>
</mask>
<path d="M53.404 49.91C53.404 52.038 52.606 53.704 51.01 54.908C49.414 56.112 47.062 56.714 43.954 56.714C42.778 56.714 41.686 56.63 40.678 56.462C39.67 56.294 38.802 56.042 38.074 55.706C37.374 55.342 36.814 54.894 36.394 54.362C36.002 53.83 35.806 53.2 35.806 52.472C35.806 51.8 35.946 51.24 36.226 50.792C36.506 50.316 36.842 49.924 37.234 49.616C38.046 50.064 38.97 50.47 40.006 50.834C41.07 51.17 42.288 51.338 43.66 51.338C44.528 51.338 45.186 51.212 45.634 50.96C46.11 50.708 46.348 50.372 46.348 49.952C46.348 49.56 46.18 49.252 45.844 49.028C45.508 48.804 44.948 48.622 44.164 48.482L42.904 48.23C40.468 47.754 38.648 47.012 37.444 46.004C36.268 44.968 35.68 43.498 35.68 41.594C35.68 40.558 35.904 39.62 36.352 38.78C36.8 37.94 37.43 37.24 38.242 36.68C39.054 36.12 40.02 35.686 41.14 35.378C42.288 35.07 43.548 34.916 44.92 34.916C45.956 34.916 46.922 35 47.818 35.168C48.742 35.308 49.54 35.532 50.212 35.84C50.884 36.148 51.416 36.554 51.808 37.058C52.2 37.534 52.396 38.108 52.396 38.78C52.396 39.424 52.27 39.984 52.018 40.46C51.794 40.908 51.5 41.286 51.136 41.594C50.912 41.454 50.576 41.314 50.128 41.174C49.68 41.006 49.19 40.866 48.658 40.754C48.126 40.614 47.58 40.502 47.02 40.418C46.488 40.334 45.998 40.292 45.55 40.292C44.626 40.292 43.912 40.404 43.408 40.628C42.904 40.824 42.652 41.146 42.652 41.594C42.652 41.902 42.792 42.154 43.072 42.35C43.352 42.546 43.884 42.728 44.668 42.896L45.97 43.19C48.658 43.806 50.562 44.66 51.682 45.752C52.83 46.816 53.404 48.202 53.404 49.91Z" fill="#F1F3F5"/>
<path d="M51.01 54.908L52.8167 57.3029V57.3029L51.01 54.908ZM40.678 56.462L41.1712 53.5028V53.5028L40.678 56.462ZM38.074 55.706L36.6899 58.3676L36.7527 58.4003L36.8168 58.4299L38.074 55.706ZM36.394 54.362L33.9788 56.1416L34.0084 56.1818L34.0394 56.2209L36.394 54.362ZM36.226 50.792L38.77 52.382L38.7914 52.3478L38.8118 52.3131L36.226 50.792ZM37.234 49.616L38.6832 46.9893L36.9432 46.0292L35.3805 47.257L37.234 49.616ZM40.006 50.834L39.0115 53.6644L39.0568 53.6803L39.1026 53.6947L40.006 50.834ZM45.634 50.96L44.2303 48.3086L44.1965 48.3265L44.1632 48.3453L45.634 50.96ZM44.164 48.482L43.5757 51.4237L43.6061 51.4298L43.6366 51.4353L44.164 48.482ZM42.904 48.23L43.4924 45.2882L43.4793 45.2857L42.904 48.23ZM37.444 46.004L35.4609 48.2551L35.4892 48.28L35.5182 48.3043L37.444 46.004ZM36.352 38.78L33.7049 37.3682H33.7049L36.352 38.78ZM38.242 36.68L39.9452 39.1496L39.9452 39.1496L38.242 36.68ZM41.14 35.378L40.3626 32.4805L40.3536 32.4829L40.3445 32.4854L41.14 35.378ZM47.818 35.168L47.2651 38.1166L47.3167 38.1263L47.3686 38.1341L47.818 35.168ZM50.212 35.84L48.962 38.5672H48.962L50.212 35.84ZM51.808 37.058L49.4399 38.8998L49.4656 38.9328L49.4922 38.9651L51.808 37.058ZM52.018 40.46L49.3666 39.0563L49.3503 39.0872L49.3347 39.1184L52.018 40.46ZM51.136 41.594L49.546 44.138L51.4025 45.2983L53.0738 43.8842L51.136 41.594ZM50.128 41.174L49.0746 43.983L49.1531 44.0124L49.2332 44.0374L50.128 41.174ZM48.658 40.754L47.8945 43.6552L47.9668 43.6742L48.04 43.6896L48.658 40.754ZM47.02 40.418L46.5521 43.3813L46.5635 43.3831L46.575 43.3848L47.02 40.418ZM43.408 40.628L44.4953 43.424L44.5615 43.3983L44.6264 43.3694L43.408 40.628ZM43.072 42.35L41.3516 44.8077L41.3516 44.8077L43.072 42.35ZM44.668 42.896L45.3288 39.9697L45.3127 39.966L45.2966 39.9626L44.668 42.896ZM45.97 43.19L46.6401 40.2658L46.6308 40.2637L45.97 43.19ZM51.682 45.752L49.5877 47.9L49.6149 47.9265L49.6427 47.9523L51.682 45.752ZM50.404 49.91C50.404 51.1672 49.9932 51.9171 49.2033 52.5131L52.8167 57.3029C55.2188 55.4909 56.404 52.9088 56.404 49.91H50.404ZM49.2033 52.5131C48.3455 53.1602 46.7491 53.714 43.954 53.714V59.714C47.3749 59.714 50.4825 59.0638 52.8167 57.3029L49.2033 52.5131ZM43.954 53.714C42.9191 53.714 41.994 53.64 41.1712 53.5028L40.1848 59.4212C41.378 59.62 42.6369 59.714 43.954 59.714V53.714ZM41.1712 53.5028C40.3587 53.3674 39.7603 53.1802 39.3312 52.9821L36.8168 58.4299C37.8437 58.9038 38.9813 59.2206 40.1848 59.4212L41.1712 53.5028ZM39.4581 53.0443C39.0734 52.8444 38.8659 52.6516 38.7486 52.5031L34.0394 56.2209C34.7621 57.1364 35.6746 57.8396 36.6899 58.3676L39.4581 53.0443ZM38.8092 52.5824C38.8086 52.5816 38.8107 52.5844 38.8136 52.5901C38.8164 52.5958 38.8176 52.5995 38.8176 52.5993C38.8174 52.5989 38.8148 52.5903 38.812 52.5711C38.8092 52.5516 38.806 52.5193 38.806 52.472H32.806C32.806 53.7719 33.1682 55.0415 33.9788 56.1416L38.8092 52.5824ZM38.806 52.472C38.806 52.3422 38.8197 52.2825 38.8214 52.2756C38.8221 52.2728 38.8198 52.2829 38.8115 52.3028C38.803 52.3231 38.7897 52.3504 38.77 52.382L33.682 49.202C33.0329 50.2406 32.806 51.3891 32.806 52.472H38.806ZM38.8118 52.3131C38.9225 52.1249 39.0198 52.0281 39.0875 51.975L35.3805 47.257C34.6642 47.8199 34.0895 48.5071 33.6402 49.2709L38.8118 52.3131ZM35.7848 52.2427C36.7661 52.7842 37.8463 53.255 39.0115 53.6644L41.0005 48.0036C40.0937 47.685 39.3259 47.3438 38.6832 46.9893L35.7848 52.2427ZM39.1026 53.6947C40.517 54.1414 42.0491 54.338 43.66 54.338V48.338C42.5269 48.338 41.623 48.1986 40.9094 47.9733L39.1026 53.6947ZM43.66 54.338C44.731 54.338 45.9973 54.1977 47.1048 53.5747L44.1632 48.3453C44.2923 48.2726 44.3422 48.2775 44.2403 48.297C44.1424 48.3158 43.9569 48.338 43.66 48.338V54.338ZM47.0377 53.6114C48.1703 53.0117 49.348 51.8086 49.348 49.952H43.348C43.348 49.5541 43.4737 49.1346 43.7214 48.785C43.9444 48.4701 44.1763 48.3372 44.2303 48.3086L47.0377 53.6114ZM49.348 49.952C49.348 48.5211 48.6485 47.2921 47.5081 46.5318L44.1799 51.5242C44.0051 51.4076 43.7699 51.1964 43.5883 50.8636C43.4048 50.5271 43.348 50.198 43.348 49.952H49.348ZM47.5081 46.5318C46.635 45.9498 45.5632 45.6844 44.6914 45.5287L43.6366 51.4353C43.937 51.4889 44.132 51.54 44.2447 51.5766C44.2988 51.5942 44.3186 51.6035 44.3118 51.6004C44.3064 51.598 44.2566 51.5753 44.1799 51.5242L47.5081 46.5318ZM44.7523 45.5403L43.4923 45.2883L42.3157 51.1717L43.5757 51.4237L44.7523 45.5403ZM43.4793 45.2857C41.2798 44.8559 40.0227 44.2503 39.3698 43.7037L35.5182 48.3043C37.2733 49.7737 39.6562 50.6521 42.3287 51.1743L43.4793 45.2857ZM39.4271 43.7529C39.0348 43.4073 38.68 42.8379 38.68 41.594H32.68C32.68 44.1581 33.5012 46.5287 35.4609 48.2551L39.4271 43.7529ZM38.68 41.594C38.68 41.0059 38.8028 40.5597 38.9991 40.1918L33.7049 37.3682C33.0052 38.6803 32.68 40.11 32.68 41.594H38.68ZM38.9991 40.1918C39.2132 39.7903 39.5131 39.4477 39.9452 39.1496L36.5388 34.2104C35.3469 35.0323 34.3868 36.0897 33.7049 37.3682L38.9991 40.1918ZM39.9452 39.1496C40.4362 38.811 41.0834 38.5049 41.9355 38.2706L40.3445 32.4854C38.9566 32.8671 37.6718 33.429 36.5388 34.2104L39.9452 39.1496ZM41.9174 38.2755C42.7764 38.0451 43.771 37.916 44.92 37.916V31.916C43.325 31.916 41.7996 32.0949 40.3626 32.4805L41.9174 38.2755ZM44.92 37.916C45.7951 37.916 46.5741 37.9871 47.2651 38.1166L48.3709 32.2194C47.2699 32.0129 46.1169 31.916 44.92 31.916V37.916ZM47.3686 38.1341C48.0852 38.2427 48.6012 38.4018 48.962 38.5672L51.462 33.1128C50.4788 32.6622 49.3988 32.3733 48.2674 32.2019L47.3686 38.1341ZM48.962 38.5672C49.265 38.7061 49.3876 38.8326 49.4399 38.8998L54.1761 35.2162C53.4444 34.2754 52.503 33.5899 51.462 33.1128L48.962 38.5672ZM49.4922 38.9651C49.4795 38.9497 49.4636 38.9275 49.4477 38.8992C49.4318 38.8707 49.4191 38.8419 49.41 38.8149C49.3905 38.758 49.396 38.7384 49.396 38.78H55.396C55.396 37.4791 54.9989 36.2135 54.1238 35.1509L49.4922 38.9651ZM49.396 38.78C49.396 39.03 49.3489 39.0898 49.3666 39.0563L54.6694 41.8637C55.1911 40.8782 55.396 39.818 55.396 38.78H49.396ZM49.3347 39.1184C49.2831 39.2216 49.2365 39.2714 49.1982 39.3038L53.0738 43.8842C53.7635 43.3006 54.3049 42.5944 54.7013 41.8016L49.3347 39.1184ZM52.726 39.05C52.1791 38.7082 51.5575 38.4777 51.0228 38.3106L49.2332 44.0374C49.3931 44.0874 49.4991 44.127 49.5622 44.1532C49.631 44.1819 49.6139 44.1804 49.546 44.138L52.726 39.05ZM51.1814 38.365C50.5741 38.1373 49.9366 37.9574 49.276 37.8183L48.04 43.6896C48.4435 43.7746 48.7859 43.8747 49.0746 43.983L51.1814 38.365ZM49.4215 37.8528C48.7816 37.6844 48.1291 37.5508 47.465 37.4512L46.575 43.3848C47.0309 43.4532 47.4704 43.5436 47.8945 43.6552L49.4215 37.8528ZM47.4879 37.4547C46.831 37.351 46.1823 37.292 45.55 37.292V43.292C45.8137 43.292 46.145 43.317 46.5521 43.3813L47.4879 37.4547ZM45.55 37.292C44.4526 37.292 43.2518 37.4145 42.1896 37.8866L44.6264 43.3694C44.5771 43.3914 44.6138 43.3668 44.7864 43.3398C44.9542 43.3134 45.2031 43.292 45.55 43.292V37.292ZM42.3207 37.832C41.7237 38.0641 41.0274 38.4662 40.4785 39.1676C39.8993 39.9076 39.652 40.7679 39.652 41.594H45.652C45.652 41.9721 45.5307 42.4474 45.2035 42.8654C44.9066 43.2448 44.5883 43.3879 44.4953 43.424L42.3207 37.832ZM39.652 41.594C39.652 42.9998 40.3722 44.1221 41.3516 44.8077L44.7924 39.8923C44.9565 40.0072 45.1912 40.2182 45.3795 40.5571C45.574 40.9072 45.652 41.2742 45.652 41.594H39.652ZM41.3516 44.8077C42.1771 45.3855 43.2524 45.6608 44.0394 45.8294L45.2966 39.9626C44.9761 39.8939 44.7698 39.8353 44.6521 39.795C44.5954 39.7756 44.5801 39.7675 44.5953 39.7746C44.6069 39.78 44.6827 39.8155 44.7924 39.8923L41.3516 44.8077ZM44.0072 45.8223L45.3092 46.1163L46.6308 40.2637L45.3288 39.9697L44.0072 45.8223ZM45.2999 46.1142C47.8071 46.6888 49.0604 47.3859 49.5877 47.9L53.7763 43.604C52.0636 41.9341 49.5089 40.9232 46.6401 40.2658L45.2999 46.1142ZM49.6427 47.9523C50.1185 48.3933 50.404 48.9523 50.404 49.91H56.404C56.404 47.4517 55.5415 45.2387 53.7213 43.5517L49.6427 47.9523Z" fill="black" mask="url(#path-2-outside-1_0_1)"/>
</svg>
